<svg width="429" height="270" viewBox="0 0 429 270" fill="none" xmlns="http://www.w3.org/2000/svg">
<g clip-path="url(#clip0_10_330)">
<path d="M197.401 157.484H258.909V101.325H197.401V157.484Z" fill="white"/>
<path d="M125 102.194V157.484H197.407V101.124L162.006 65.6978L125 102.194Z" fill="#B2CBF2"/>
<path d="M258.935 101.495L221.394 65.1561L162.006 65.7355L197.407 101.495H258.935Z" fill="#3F4B5E"/>
<path d="M229.209 136.392H240.573V117.958H229.209V136.392Z" fill="#233A5E"/>
<path d="M209.01 136.392H220.375V117.958H209.01V136.392Z" fill="#233A5E"/>
<path d="M166.291 95.1721H155.38V106.093H166.291V95.1721Z" fill="#233A5E"/>
<path d="M169.141 130.182H154.128V157.44H169.141V130.182Z" fill="#233A5E"/>
<path d="M263.887 81.5811L240.189 35.7952H287.905L314.648 61.8308L263.887 81.5811Z" fill="#3F4B5E"/>
<path d="M314.648 61.8182H265.919V157.433H314.648V61.8182Z" fill="white"/>
<path d="M266.932 157.433H240.189H213.447V93.9503V61.8308L240.189 35.7952L266.932 61.8308V93.9503V157.433Z" fill="#B2CBF2"/>
<path d="M234.841 82.085H225.232V69.4891C225.232 68.2141 225.738 66.9912 226.638 66.089C227.538 65.1868 228.76 64.6792 230.033 64.6775C231.308 64.6775 232.531 65.1844 233.433 66.0868C234.334 66.9891 234.841 68.213 234.841 69.4891V82.085Z" fill="#233A5E"/>
<path d="M255.147 82.085H245.538V69.4891C245.538 68.2141 246.044 66.9912 246.944 66.089C247.844 65.1868 249.065 64.6792 250.339 64.6775C251.614 64.6775 252.837 65.1844 253.739 66.0868C254.64 66.9891 255.147 68.213 255.147 69.4891V82.085Z" fill="#233A5E"/>
<path d="M234.841 108.398H225.232V95.8019C225.232 94.5268 225.738 93.3039 226.638 92.4017C227.538 91.4996 228.76 90.9919 230.033 90.9902C231.308 90.9902 232.531 91.4972 233.433 92.3995C234.334 93.3019 234.841 94.5257 234.841 95.8019V108.398Z" fill="#233A5E"/>
<path d="M255.147 108.398H245.538V95.8019C245.538 94.5268 246.044 93.3039 246.944 92.4017C247.844 91.4996 249.065 90.9919 250.339 90.9902C251.614 90.9902 252.837 91.4972 253.739 92.3995C254.64 93.3019 255.147 94.5257 255.147 95.8019V108.398Z" fill="#233A5E"/>
<path d="M234.841 134.71H225.232V122.077C225.234 120.803 225.74 119.582 226.64 118.681C227.54 117.78 228.761 117.273 230.033 117.271V117.271C231.307 117.271 232.529 117.778 233.431 118.679C234.332 119.58 234.839 120.802 234.841 122.077V134.71Z" fill="#233A5E"/>
<path d="M255.147 134.71H245.538V122.077C245.54 120.803 246.046 119.582 246.946 118.681C247.846 117.78 249.066 117.273 250.339 117.271V117.271C251.613 117.271 252.835 117.778 253.736 118.679C254.638 119.58 255.145 120.802 255.147 122.077V134.71Z" fill="#233A5E"/>
<path d="M317.731 135.41L295.657 89.6237H340.095L365 115.659L317.731 135.41Z" fill="#3F4B5E"/>
<path d="M365 115.647H319.619V157.326H365V115.647Z" fill="white"/>
<path d="M320.563 157.326H295.657V89.6237L320.563 115.659V147.779V157.326Z" fill="#B2CBF2"/>
<path d="M343.883 131.524C342.946 131.524 342.019 131.708 341.154 132.067C340.289 132.425 339.503 132.951 338.841 133.614C338.179 134.276 337.654 135.063 337.296 135.929C336.938 136.794 336.753 137.722 336.753 138.659V157.345H351.012V138.666C351.013 137.728 350.829 136.799 350.471 135.933C350.113 135.066 349.588 134.279 348.926 133.616C348.264 132.953 347.478 132.426 346.612 132.067C345.747 131.708 344.819 131.524 343.883 131.524V131.524Z" fill="#233A5E"/>
<path d="M223.477 121.397C223.477 121.397 227.73 115.873 226.944 109.72C226.157 103.567 221.281 102.163 217.644 102.163C217.644 102.163 218.348 87.9736 209.017 85.7882C199.679 87.9988 200.383 102.163 200.383 102.163C196.759 102.163 191.876 103.586 191.089 109.72C190.303 115.855 194.557 121.397 194.557 121.397C194.557 121.397 187.308 125.175 190.152 134.169C192.996 143.162 209.029 146.311 209.029 146.311C209.029 146.311 225.062 143.162 227.907 134.169C230.751 125.175 223.477 121.397 223.477 121.397Z" fill="#548BE3"/>
<path d="M222.294 127.159L210.911 138.88L210.168 123.494L218.543 108.826L210.055 121.044L209.017 99.335L207.978 121.044L199.484 108.826L207.859 123.494L207.123 138.88L195.733 127.159L206.991 141.613L206.122 159.795H209.017H211.911L211.037 141.613L222.294 127.159Z" fill="#253C60"/>
</g>
<g clip-path="url(#clip1_10_330)">
<path fill-rule="evenodd" clip-rule="evenodd" d="M126.262 269.76C142.665 215.444 76.6291 204.129 41.7613 198.013C-33.9252 184.781 2.8752 106.272 75.6982 136.664C118.862 154.718 160.776 216.515 126.262 269.76Z" fill="#08375F"/>
</g>
<g clip-path="url(#clip2_10_330)">
<path fill-rule="evenodd" clip-rule="evenodd" d="M365 47.5728C373.743 37.2517 383.065 40.9593 390.963 47.3585C393.755 49.6122 396.959 51.1719 400.354 51.9297C403.749 52.6874 407.254 52.625 410.624 51.7468C413.995 50.8686 417.152 49.1956 419.876 46.8437C422.6 44.4917 424.826 41.5172 426.4 38.1262C427.973 34.7351 428.857 31.0087 428.99 27.205C429.122 23.4014 428.501 19.6116 427.168 16.0982C425.835 12.5848 423.823 9.43177 421.271 6.85773C418.718 4.28369 415.687 2.35013 412.388 1.19106C402.156 -2.38165 391.013 2.38197 385.276 12.3538L365 47.5728Z" fill="#548BE3"/>
</g>
<defs>
<clipPath id="clip0_10_330">
<rect width="240" height="124" fill="white" transform="translate(125 35.7952)"/>
</clipPath>
<clipPath id="clip1_10_330">
<rect width="139" height="140" fill="white" transform="translate(0 129.795)"/>
</clipPath>
<clipPath id="clip2_10_330">
<rect width="64" height="52.4474" fill="white" transform="translate(365)"/>
</clipPath>
</defs>
</svg>
