<svg width="220" height="63" viewBox="0 0 220 63" fill="none" xmlns="http://www.w3.org/2000/svg">
<g clip-path="url(#clip0_100_4)">
<path d="M220 57.0148C219.504 57.528 218.908 57.9355 218.249 58.2125C217.59 58.4896 216.882 58.6304 216.167 58.6266C215.483 58.6344 214.805 58.5071 214.17 58.2521C213.536 57.997 212.959 57.6193 212.472 57.1407C211.986 56.6622 211.599 56.0922 211.334 55.4638C211.07 54.8354 210.933 54.161 210.932 53.4796V31.7471C210.932 31.0759 210.664 30.4323 210.188 29.9577C209.712 29.4832 209.066 29.2166 208.392 29.2166C208.13 29.2165 207.87 29.2583 207.621 29.3401C207.109 29.5024 206.662 29.8232 206.345 30.2561C206.028 30.6889 205.857 31.2112 205.858 31.7471V47.6448C205.858 49.0299 205.306 50.3582 204.324 51.3375C203.341 52.3169 202.008 52.8671 200.618 52.8671C199.228 52.8671 197.895 52.3169 196.913 51.3375C195.93 50.3582 195.378 49.0299 195.378 47.6448V32.9667C195.39 32.6307 195.332 32.2958 195.209 31.9827C195.086 31.6697 194.899 31.3853 194.661 31.147C194.423 30.9088 194.139 30.7218 193.825 30.5977C193.511 30.4735 193.176 30.4149 192.838 30.4254C192.501 30.4148 192.166 30.4735 191.852 30.5977C191.539 30.7219 191.255 30.9089 191.017 31.1473C190.78 31.3856 190.594 31.6701 190.471 31.9831C190.348 32.2961 190.292 32.6309 190.304 32.9667V45.1304C190.304 45.812 190.167 46.4868 189.903 47.1155C189.639 47.7442 189.252 48.3145 188.765 48.7932C188.278 49.2719 187.701 49.6496 187.067 49.9044C186.432 50.1592 185.753 50.286 185.069 50.2774C184.341 50.2799 183.621 50.1323 182.953 49.8438C182.285 49.5553 181.684 49.1323 181.188 48.6012V56.2572C181.188 58.0412 181.899 59.7522 183.165 61.0137C184.431 62.2751 186.147 62.9838 187.938 62.9838H213.304C213.731 62.9846 214.157 62.9432 214.576 62.8603C215.987 62.588 217.274 61.8743 218.249 60.823C219.225 59.7716 219.838 58.4375 220 57.0148Z" fill="#3C3C3C"/>
<path d="M182.519 26.9816C182.519 28.2603 182.519 29.4262 182.519 30.3181V45.0661C182.507 45.4018 182.565 45.7365 182.688 46.0492C182.811 46.362 182.998 46.6461 183.236 46.8839C183.474 47.1218 183.759 47.3082 184.072 47.4318C184.386 47.5553 184.722 47.6132 185.059 47.602C185.397 47.6163 185.735 47.5606 186.052 47.4384C186.368 47.3162 186.655 47.1302 186.896 46.8921C187.136 46.6539 187.324 46.3687 187.449 46.0545C187.574 45.7402 187.632 45.4037 187.619 45.0661V32.8862C187.621 32.2048 187.758 31.5304 188.022 30.902C188.287 30.2736 188.673 29.7036 189.16 29.225C189.647 28.7464 190.224 28.3687 190.858 28.1137C191.492 27.8587 192.171 27.7314 192.854 27.7392C193.539 27.7307 194.218 27.8574 194.853 28.1121C195.487 28.3668 196.065 28.7444 196.552 29.2231C197.04 29.7017 197.427 30.2719 197.692 30.9007C197.956 31.5295 198.094 32.2043 198.095 32.8862V47.6449C198.095 48.3161 198.362 48.9597 198.839 49.4343C199.315 49.9089 199.961 50.1755 200.634 50.1755C201.308 50.1755 201.954 49.9089 202.43 49.4343C202.906 48.9597 203.174 48.3161 203.174 47.6449V31.7472C203.151 31.0477 203.27 30.3508 203.523 29.6979C203.776 29.045 204.158 28.4495 204.647 27.9467C205.135 27.444 205.72 27.0442 206.367 26.7712C207.014 26.4982 207.709 26.3575 208.411 26.3575C209.114 26.3575 209.809 26.4982 210.455 26.7712C211.102 27.0442 211.687 27.444 212.176 27.9467C212.664 28.4495 213.047 29.045 213.3 29.6979C213.553 30.3508 213.672 31.0477 213.649 31.7472V53.4152C213.637 53.751 213.694 54.0856 213.818 54.3984C213.941 54.7111 214.127 54.9952 214.366 55.2331C214.604 55.4709 214.889 55.6574 215.202 55.7809C215.516 55.9044 215.851 55.9624 216.188 55.9511C216.525 55.9624 216.861 55.9044 217.175 55.7809C217.488 55.6574 217.773 55.4709 218.011 55.2331C218.249 54.9952 218.436 54.7111 218.559 54.3984C218.682 54.0856 218.74 53.751 218.728 53.4152V17.4183V17.1335C218.043 8.63394 213.336 3.51378 207.665 1.29487C205.43 0.430072 203.053 -0.0108956 200.656 -0.00531885H200.489C192.084 0.0698986 183.306 5.49093 182.535 17.429C182.508 19.3685 182.535 22.6942 182.535 25.6331L182.519 26.9816ZM213.04 10.8636C213.382 10.8625 213.717 10.9628 214.003 11.1516C214.288 11.3405 214.511 11.6095 214.643 11.9245C214.774 12.2396 214.809 12.5865 214.743 12.9214C214.677 13.2563 214.513 13.5641 214.271 13.8058C214.029 14.0475 213.721 14.2123 213.385 14.2793C213.049 14.3463 212.701 14.3125 212.384 14.1821C212.068 14.0517 211.797 13.8307 211.607 13.5469C211.416 13.2632 211.315 12.9296 211.315 12.5882C211.313 12.3613 211.357 12.1363 211.443 11.9262C211.529 11.7161 211.655 11.5249 211.816 11.3637C211.976 11.2025 212.167 11.0744 212.377 10.9867C212.587 10.899 212.812 10.8536 213.04 10.8529V10.8636ZM187.927 10.8636C188.269 10.8625 188.604 10.9628 188.89 11.1516C189.175 11.3405 189.398 11.6095 189.53 11.9245C189.661 12.2396 189.696 12.5865 189.63 12.9214C189.564 13.2563 189.4 13.5641 189.158 13.8058C188.916 14.0475 188.608 14.2123 188.272 14.2793C187.936 14.3463 187.588 14.3125 187.271 14.1821C186.955 14.0517 186.684 13.8307 186.494 13.5469C186.303 13.2632 186.202 12.9296 186.202 12.5882C186.2 12.3613 186.244 12.1363 186.33 11.9262C186.416 11.7161 186.542 11.5249 186.703 11.3637C186.863 11.2025 187.054 11.0744 187.264 10.9867C187.474 10.899 187.699 10.8536 187.927 10.8529V10.8636Z" fill="#0B6BFF"/>
<path d="M187.927 14.2967C188.27 14.2977 188.605 14.1973 188.89 14.0083C189.176 13.8192 189.398 13.5499 189.53 13.2345C189.662 12.9192 189.696 12.5719 189.63 12.2369C189.563 11.9019 189.398 11.5941 189.156 11.3525C188.914 11.111 188.605 10.9467 188.268 10.8803C187.932 10.8139 187.584 10.8485 187.267 10.9797C186.951 11.1109 186.681 11.3328 186.491 11.6172C186.301 11.9017 186.2 12.2359 186.202 12.5774C186.202 12.8032 186.246 13.0267 186.333 13.2353C186.42 13.4439 186.547 13.6335 186.707 13.7931C186.867 13.9528 187.057 14.0794 187.267 14.1658C187.476 14.2522 187.7 14.2967 187.927 14.2967Z" fill="white"/>
<path d="M213.04 14.2967C213.382 14.2977 213.718 14.1973 214.003 14.0083C214.289 13.8192 214.511 13.5499 214.643 13.2345C214.775 12.9192 214.809 12.5719 214.743 12.2369C214.676 11.9019 214.511 11.5941 214.269 11.3525C214.027 11.111 213.718 10.9467 213.381 10.8803C213.045 10.8139 212.697 10.8485 212.38 10.9797C212.064 11.1109 211.794 11.3328 211.604 11.6172C211.414 11.9017 211.313 12.2359 211.315 12.5774C211.316 13.0329 211.498 13.4694 211.821 13.7915C212.145 14.1137 212.583 14.2952 213.04 14.2967Z" fill="white"/>
<path d="M103.315 52.577H101.212V59.0618H102.064V56.3755H103.315C103.929 56.4225 104.538 56.2299 105.013 55.8382C105.191 55.6624 105.331 55.452 105.424 55.2199C105.516 54.9879 105.56 54.7393 105.552 54.4896C105.561 54.2341 105.514 53.9798 105.414 53.7442C105.314 53.5086 105.165 53.2973 104.975 53.125C104.511 52.7391 103.918 52.5433 103.315 52.577ZM104.361 55.3493C104.063 55.5781 103.69 55.6873 103.315 55.6555H102.064V53.2754H103.315C104.237 53.2754 104.7 53.673 104.7 54.4735C104.709 54.6335 104.684 54.7936 104.625 54.9429C104.566 55.0921 104.476 55.227 104.361 55.3385V55.3493Z" fill="#1C1C1C"/>
<path d="M112.378 55.6663C112.636 55.3268 112.773 54.9106 112.766 54.4843C112.774 54.1413 112.686 53.8028 112.512 53.5065C112.332 53.2103 112.068 52.9746 111.752 52.8296C111.363 52.6489 110.936 52.5623 110.507 52.577H108.404V59.0619H109.256V56.4131H110.28L111.833 59.0619H112.852L111.235 56.3487C111.686 56.2678 112.093 56.0251 112.378 55.6663ZM109.256 55.7308V53.2755H110.523C110.898 53.2432 111.271 53.3568 111.564 53.5925C111.681 53.7085 111.771 53.848 111.83 54.0018C111.889 54.1557 111.914 54.3202 111.903 54.4843C111.911 54.6512 111.885 54.818 111.826 54.9742C111.766 55.1304 111.675 55.2728 111.558 55.3923C111.416 55.514 111.252 55.6065 111.074 55.6646C110.897 55.7227 110.709 55.7452 110.523 55.7308H109.256Z" fill="#1C1C1C"/>
<path d="M120.481 52.9264C119.973 52.6479 119.403 52.502 118.823 52.502C118.243 52.502 117.673 52.6479 117.165 52.9264C116.671 53.2057 116.262 53.6144 115.984 54.1083C115.701 54.6336 115.553 55.2206 115.553 55.8169C115.553 56.4131 115.701 57.0001 115.984 57.5254C116.264 58.018 116.672 58.4263 117.165 58.7074C117.674 58.9824 118.244 59.1265 118.823 59.1265C119.402 59.1265 119.972 58.9824 120.481 58.7074C120.974 58.4284 121.382 58.0219 121.662 57.5307C121.941 57.0024 122.087 56.4141 122.087 55.8169C122.087 55.2196 121.941 54.6313 121.662 54.103C121.385 53.6095 120.976 53.2022 120.481 52.9264ZM120.907 57.1761C120.712 57.5517 120.415 57.8647 120.05 58.0788C119.673 58.2867 119.25 58.3958 118.82 58.3958C118.39 58.3958 117.967 58.2867 117.591 58.0788C117.224 57.8661 116.927 57.5528 116.734 57.1761C116.528 56.7514 116.421 56.2858 116.421 55.8142C116.421 55.3425 116.528 54.8769 116.734 54.4522C116.926 54.0785 117.222 53.7672 117.586 53.555C117.964 53.3471 118.388 53.238 118.82 53.238C119.252 53.238 119.677 53.3471 120.055 53.555C120.417 53.7688 120.713 54.0797 120.907 54.4522C121.113 54.8769 121.219 55.3425 121.219 55.8142C121.219 56.2858 121.113 56.7514 120.907 57.1761Z" fill="#1C1C1C"/>
<path d="M127.096 52.577H124.993V59.0618H125.845V56.3755H127.096C127.709 56.424 128.317 56.2311 128.789 55.8382C128.968 55.6632 129.109 55.4529 129.201 55.2207C129.294 54.9884 129.337 54.7394 129.328 54.4896C129.338 54.2345 129.292 53.9803 129.193 53.7447C129.094 53.5091 128.945 53.2976 128.757 53.125C128.293 52.7391 127.699 52.5433 127.096 52.577ZM128.142 55.3493C127.844 55.5771 127.471 55.6863 127.096 55.6555H125.845V53.2754H127.096C128.018 53.2754 128.476 53.673 128.476 54.4735C128.486 54.6331 128.461 54.793 128.403 54.9422C128.346 55.0914 128.257 55.2266 128.142 55.3385V55.3493Z" fill="#1C1C1C"/>
<path d="M131.786 53.2649H133.571V59.062H134.417V53.2649H136.191V52.5771H131.786V53.2649Z" fill="#1C1C1C"/>
<path d="M139.022 59.062H142.526V58.3635H139.874V56.1339H142.246V55.4354H139.874V53.2649H142.526V52.5664H139.022V59.062Z" fill="#1C1C1C"/>
<path d="M147.308 53.5548C147.68 53.341 148.103 53.2314 148.532 53.2378C148.96 53.2265 149.383 53.3364 149.751 53.5548C150.095 53.7714 150.368 54.0857 150.532 54.4574H151.546C151.33 53.8615 150.925 53.3521 150.392 53.0068C149.839 52.6484 149.192 52.4614 148.532 52.4695C147.953 52.4631 147.384 52.6116 146.882 52.8993C146.391 53.1812 145.986 53.5919 145.712 54.0867C145.429 54.611 145.281 55.1971 145.281 55.7925C145.281 56.3879 145.429 56.974 145.712 57.4983C145.988 57.9888 146.393 58.3955 146.882 58.6749C147.384 58.9608 147.954 59.1073 148.532 59.0994C149.191 59.1049 149.838 58.9181 150.392 58.5621C150.922 58.2206 151.327 57.7174 151.546 57.1276H150.532C150.368 57.4978 150.095 57.8104 149.751 58.0248C149.382 58.2413 148.96 58.3493 148.532 58.3364C148.103 58.3428 147.68 58.2333 147.308 58.0195C146.944 57.8072 146.649 57.496 146.456 57.1222C146.244 56.7029 146.138 56.2379 146.149 55.7683C146.138 55.2952 146.243 54.8266 146.456 54.4037C146.656 54.0477 146.951 53.7539 147.308 53.5548Z" fill="#1C1C1C"/>
<path d="M158.76 52.5771V55.4247H155.444V52.5771H154.592V59.062H155.444V56.1231H158.76V59.062H159.611V52.5771H158.76Z" fill="#1C1C1C"/>
<path d="M17.6082 20.0347C15.7862 19.0598 13.7455 18.5625 11.6777 18.5894C9.61002 18.5635 7.56953 19.0607 5.74721 20.0347C3.97808 20.9899 2.5178 22.4265 1.53655 24.177C0.488572 26.0623 -0.0414604 28.19 1.19237e-05 30.3448C-0.0478914 32.5019 0.466677 34.6345 1.49342 36.5342C2.44803 38.2704 3.87354 39.704 5.60703 40.6711C7.39717 41.66 9.41549 42.1656 11.4621 42.1379C13.5544 42.1613 15.6187 41.6567 17.4626 40.6711C19.2608 39.7097 20.7544 38.2678 21.7757 36.5073C22.8482 34.632 23.3921 32.5028 23.35 30.3448C23.3882 28.189 22.8544 26.0613 21.8027 24.177C20.8258 22.4287 19.3714 20.9923 17.6082 20.0347ZM17.4842 34.5409C16.8836 35.6371 15.9848 36.5422 14.891 37.152C13.8404 37.7262 12.6602 38.0239 11.4621 38.017C10.5719 38.0399 9.68716 37.8729 8.86705 37.5273C8.04695 37.1817 7.31044 36.6654 6.70687 36.013C5.44529 34.677 4.8163 32.7804 4.81989 30.3233C4.77313 28.8696 5.08605 27.4267 5.73103 26.1219C6.28317 25.0373 7.14146 24.1371 8.20028 23.5323C9.2337 22.9536 10.4007 22.6536 11.5861 22.6619C12.7781 22.6548 13.9518 22.9546 14.9934 23.5323C16.0687 24.1369 16.9479 25.0354 17.5273 26.1219C18.1999 27.4183 18.5284 28.8647 18.4816 30.3233C18.5328 31.7995 18.1885 33.2627 17.4842 34.5624V34.5409Z" fill="#1C1C1C"/>
<path d="M36.4241 22.5652C37.653 22.5097 38.8682 22.8426 39.8961 23.5161C40.8243 24.1677 41.5224 25.0947 41.8909 26.1649H47.0019C46.4826 23.9198 45.1794 21.9318 43.325 20.5558C41.4919 19.2449 39.1916 18.5894 36.4241 18.5894C34.391 18.5516 32.3841 19.0502 30.6068 20.0346C28.9154 21.0092 27.5402 22.4469 26.6441 24.177C25.6557 26.0886 25.1627 28.2163 25.21 30.3663C25.1649 32.5092 25.6579 34.6294 26.6441 36.5341C27.5458 38.2602 28.9197 39.6965 30.6068 40.6765C32.3792 41.6754 34.3882 42.1819 36.4241 42.1432C38.8583 42.2284 41.2525 41.5087 43.2334 40.0962C45.0664 38.7227 46.384 36.776 46.975 34.5677H41.864C40.9798 36.9532 39.1665 38.1459 36.4241 38.1459C35.5483 38.1802 34.6764 38.0128 33.876 37.6569C33.0757 37.3009 32.3684 36.766 31.8091 36.0936C30.6625 34.7182 30.0874 32.8019 30.0838 30.3448C30.0802 27.8877 30.6553 25.9768 31.8091 24.6122C32.3697 23.9417 33.0774 23.4084 33.8775 23.0535C34.6777 22.6986 35.5489 22.5315 36.4241 22.5652Z" fill="#1C1C1C"/>
<path d="M55.9839 12.6472H51.218V18.9601H48.5223V22.8123H51.218V35.4596C51.218 37.6946 51.7859 39.3064 52.9216 40.295C54.0574 41.2836 55.691 41.7814 57.8224 41.7886H61.564V37.8343H58.6527C57.9251 37.9115 57.1943 37.7204 56.5985 37.2971C56.3743 37.0497 56.2038 36.7588 56.0981 36.4425C55.9923 36.1262 55.9534 35.7916 55.9839 35.4596V22.8123H61.5532V18.9601H55.9839V12.6472Z" fill="#1C1C1C"/>
<path d="M84.8924 36.5342C85.9668 34.6595 86.5126 32.5302 86.4721 30.3718C86.5183 28.2078 85.9882 26.0703 84.9356 24.1771C83.9573 22.4298 82.5032 20.9938 80.7411 20.0347C78.9083 19.0889 76.8745 18.5952 74.8106 18.5952C72.7466 18.5952 70.7128 19.0889 68.8801 20.0347C67.11 20.9906 65.6482 22.4269 64.664 24.1771C63.6161 26.0624 63.086 28.19 63.1275 30.3449C63.0812 32.5025 63.5977 34.6351 64.6263 36.5342C65.5782 38.2721 67.0019 39.7076 68.7345 40.6765C70.5246 41.6654 72.543 42.171 74.5895 42.1433C76.6836 42.1665 78.7495 41.6619 80.5955 40.6765C82.3853 39.7192 83.873 38.2851 84.8924 36.5342ZM80.6117 34.5893C80.0125 35.6866 79.1133 36.592 78.0184 37.2004C76.9679 37.7746 75.7877 38.0723 74.5895 38.0654C73.6994 38.0883 72.8146 37.9213 71.9945 37.5757C71.1744 37.2301 70.4379 36.7138 69.8343 36.0614C68.5656 34.7075 67.9312 32.802 67.9312 30.3449C67.8844 28.8911 68.1974 27.4482 68.8423 26.1435C69.3949 25.0573 70.2554 24.1569 71.317 23.5538C72.3501 22.9745 73.5173 22.6744 74.7027 22.6835C75.893 22.6771 77.0647 22.9769 78.1047 23.5538C79.18 24.1584 80.0593 25.057 80.6386 26.1435C81.3112 27.4399 81.6397 28.8862 81.5929 30.3449C81.6452 31.8124 81.3067 33.2676 80.6117 34.5624V34.5893Z" fill="#1C1C1C"/>
<path d="M132.822 31.6666C132.822 33.7082 132.283 35.277 131.264 36.3623C130.714 36.9111 130.054 37.3383 129.328 37.616C128.601 37.8937 127.824 38.0157 127.047 37.9741C126.274 38.0171 125.499 37.8956 124.776 37.6177C124.053 37.3399 123.398 36.9119 122.853 36.3623C121.829 35.2878 121.316 33.7082 121.316 31.6666V18.9602H116.621V32.3919C116.566 34.2337 116.99 36.0583 117.85 37.6894C118.614 39.1032 119.786 40.2561 121.214 40.9989C122.715 41.7635 124.381 42.1474 126.066 42.1164C127.391 42.1233 128.701 41.8485 129.91 41.3105C131.052 40.8203 132.057 40.0606 132.838 39.097V41.7833H137.571V18.9602H132.838L132.822 31.6666Z" fill="#1C1C1C"/>
<path d="M150.845 42.138C152.433 42.1737 154.01 41.8772 155.476 41.2676C156.688 40.762 157.737 39.9328 158.506 38.8714C159.225 37.853 159.602 36.6346 159.584 35.3899C159.619 34.1121 159.19 32.8648 158.377 31.8762C157.621 31.0071 156.677 30.32 155.616 29.8668C154.286 29.3237 152.918 28.8748 151.524 28.5236C150.277 28.1654 149.335 27.8682 148.699 27.6318C148.1 27.4188 147.55 27.0881 147.082 26.6593C146.867 26.4663 146.697 26.2298 146.581 25.9658C146.466 25.7017 146.409 25.4161 146.413 25.1281C146.408 24.7587 146.497 24.3939 146.671 24.0679C146.845 23.7419 147.1 23.4653 147.411 23.2638C148.281 22.7405 149.292 22.4967 150.306 22.5653C151.392 22.5071 152.464 22.8303 153.336 23.4787C153.704 23.7746 154.006 24.145 154.221 24.5654C154.435 24.9858 154.558 25.4467 154.581 25.9179H159.32C159.311 24.8911 159.078 23.8787 158.637 22.9508C158.195 22.023 157.557 21.2021 156.765 20.5452C155.169 19.2343 153.072 18.5788 150.473 18.5788C148.886 18.5483 147.309 18.8446 145.842 19.4492C144.608 19.9394 143.536 20.7638 142.747 21.8293C142.039 22.7959 141.661 23.9636 141.669 25.1603C141.607 26.4638 142.027 27.7446 142.85 28.76C143.609 29.6478 144.57 30.3422 145.653 30.7855C147.023 31.3244 148.424 31.7819 149.848 32.1555C151.18 32.492 152.48 32.9488 153.729 33.5202C154.108 33.6805 154.428 33.9521 154.648 34.2986C154.868 34.6452 154.976 35.0502 154.959 35.4597C154.961 35.8518 154.863 36.2379 154.675 36.5819C154.486 36.926 154.213 37.2165 153.88 37.4261C152.939 37.9748 151.852 38.2258 150.764 38.1461C149.624 38.1871 148.504 37.8445 147.583 37.1736C147.191 36.8928 146.863 36.531 146.623 36.113C146.383 35.6949 146.236 35.2302 146.192 34.7506H141.292C141.335 36.1111 141.8 37.4249 142.623 38.5114C143.505 39.6695 144.671 40.5817 146.009 41.1602C147.531 41.8316 149.181 42.1653 150.845 42.138Z" fill="#1C1C1C"/>
<path d="M111.973 24.1772C111.088 22.4734 109.745 21.0485 108.094 20.0617C106.443 19.075 104.55 18.5653 102.625 18.5896C100.997 18.5641 99.3873 18.9329 97.9341 19.6642C96.657 20.2949 95.5358 21.1994 94.6508 22.3129V18.9603H89.9172V55.7793C94.0038 59.61 94.6508 51.7928 94.6508 51.7928V38.4524C95.5644 39.5482 96.695 40.4444 97.9719 41.085C99.4121 41.8146 101.009 42.1834 102.625 42.1595C104.551 42.1782 106.444 41.6549 108.086 40.6498C109.75 39.6289 111.096 38.1667 111.973 36.4269C112.935 34.522 113.418 32.4127 113.38 30.2806C113.426 28.1613 112.942 26.0641 111.973 24.1772ZM107.59 34.3853C106.995 35.4996 106.103 36.4291 105.013 37.0716C103.977 37.6848 102.794 38.0061 101.589 38.0011C100.363 38.0013 99.1597 37.6682 98.1091 37.0378C97.0584 36.4073 96.2001 35.5032 95.6266 34.4229C94.9526 33.1572 94.6165 31.7399 94.6508 30.3074C94.6144 28.8798 94.9507 27.4673 95.6266 26.2081C96.2232 25.1046 97.1153 24.1877 98.2037 23.5593C99.2314 22.9619 100.4 22.6468 101.589 22.646C102.789 22.6432 103.968 22.9505 105.013 23.5379C106.098 24.1511 106.99 25.0534 107.59 26.1436C108.265 27.3956 108.601 28.8008 108.566 30.2215C108.6 31.6694 108.264 33.1021 107.59 34.3853Z" fill="#1C1C1C"/>
<path d="M89.9172 55.7792C89.5286 55.4089 89.1682 55.0102 88.8389 54.5865C88.6502 54.3447 88.4508 54.0815 88.2459 53.7914L88.2028 53.7376L88.0464 53.5388L87.9332 53.4153L87.8469 53.3293C87.5168 52.9968 87.117 52.741 86.6762 52.5803C86.2354 52.4196 85.7643 52.358 85.2968 52.3998C84.6027 52.4527 83.9432 52.7233 83.4131 53.1729C82.8829 53.6224 82.5093 54.2278 82.3458 54.9021C82.1823 55.5764 82.2374 56.285 82.5031 56.9262C82.7689 57.5674 83.2316 58.1082 83.825 58.471C85.2321 59.336 87.2808 59.1587 88.8389 58.9008C89.9138 58.7373 90.9433 58.3551 91.8635 57.7779C92.42 57.4196 92.909 56.9668 93.3084 56.4401C93.7633 55.8379 94.1016 55.1565 94.3058 54.4307C94.4727 53.8191 94.581 53.193 94.6293 52.561C94.6293 52.3085 94.6616 52.056 94.6616 51.7927C94.6508 51.7927 94.0039 59.6368 89.9172 55.7792Z" fill="#0B6BFF"/>
</g>
<defs>
<clipPath id="clip0_100_4">
<rect width="220" height="63" fill="white"/>
</clipPath>
</defs>
</svg>
