<svg width="45" height="45" viewBox="0 0 45 45" fill="none" xmlns="http://www.w3.org/2000/svg">
<path d="M0 45L3.22496 33.0017C0.624099 28.323 -0.197373 22.8656 0.911345 17.6315C2.02006 12.3973 4.98457 7.73762 9.26065 4.50779C13.5367 1.27796 18.8375 -0.305267 24.1897 0.0487424C29.542 0.402751 34.5866 2.67024 38.3976 6.43496C42.2086 10.1997 44.5301 15.209 44.9361 20.5433C45.342 25.8777 43.8051 31.179 40.6075 35.4743C37.4099 39.7695 32.7662 42.7703 27.5288 43.9259C22.2914 45.0815 16.8118 44.3142 12.0959 41.765L0 45ZM12.6942 37.2715L13.4607 37.7283C17.2547 39.9843 21.7454 40.7777 26.0856 39.9589C30.4258 39.1401 34.3156 36.7656 37.0212 33.2833C39.7268 29.801 41.0612 25.4517 40.7728 21.0557C40.4843 16.6598 38.5928 12.521 35.4552 9.42014C32.3176 6.31928 28.1507 4.47067 23.7405 4.22299C19.3303 3.97532 14.9816 5.34571 11.5148 8.07567C8.04794 10.8056 5.70258 14.7064 4.92108 19.0423C4.13959 23.3782 4.97599 27.8494 7.27251 31.6126L7.7399 32.3771L5.93579 39.0801L12.6942 37.2715Z" fill="white"/>
<path fill-rule="evenodd" clip-rule="evenodd" d="M30.5646 25.9054C29.6539 25.3362 28.5154 24.6982 27.468 25.1595C26.6574 25.5128 26.1473 26.8673 25.6464 27.5642C25.5336 27.7267 25.3702 27.8399 25.1862 27.8832C25.0022 27.9265 24.8099 27.8968 24.6446 27.7997C21.7 26.5563 19.2318 24.2769 17.6406 21.3316C17.5047 21.1458 17.4402 20.9107 17.4605 20.675C17.4809 20.4394 17.5845 20.2212 17.7499 20.0655C18.3438 19.4535 18.78 18.6858 19.0159 17.8375C19.0596 16.921 18.864 16.0097 18.4512 15.2071C18.0323 14.2256 17.5404 12.822 16.6297 12.2626C16.1862 12.0328 15.6891 11.9512 15.2022 12.0282C14.7153 12.1051 14.2609 12.3371 13.8973 12.6944C13.2793 13.2683 12.7884 13.9841 12.4606 14.7891C12.1328 15.5942 11.9764 16.4681 12.0029 17.3468C12.01 17.8461 12.068 18.3431 12.1759 18.8288C12.4625 19.9815 12.9044 21.0827 13.4875 22.0972C13.9064 22.8628 14.3982 23.6185 14.8627 24.3449C16.4699 26.7292 18.4932 28.7529 20.8193 30.3026C21.9865 31.0878 23.2333 31.7267 24.5353 32.2067C25.8887 32.8704 27.3841 33.1248 28.8615 32.9428C29.7019 32.8014 30.4977 32.4415 31.18 31.8943C31.8624 31.347 32.4108 30.6289 32.7778 29.802C32.9869 29.2972 33.0503 28.7365 32.96 28.1923C32.7869 27.1029 31.3934 26.4551 30.5646 25.9054Z" fill="white"/>
</svg>
